<?xml version="1.0" encoding="UTF-8" standalone="no"?>
<svg xmlns:dc="http://purl.org/dc/elements/1.1/" xmlns:cc="http://creativecommons.org/ns#" xmlns:rdf="http://www.w3.org/1999/02/22-rdf-syntax-ns#" xmlns:svg="http://www.w3.org/2000/svg" xmlns="http://www.w3.org/2000/svg" viewBox="0 0 754.58667 281.78668" height="281.78668" width="754.58667" xml:space="preserve" id="svg2" version="1.1">
  <metadata id="metadata8"></metadata>
  <defs id="defs6"></defs>
  <g transform="matrix(1.3333333,0,0,-1.3333333,0,281.78667)" id="g10">
    <g transform="scale(0.1)" id="g12">
      <path id="path14" style="fill:#002d6e;fill-opacity:1;fill-rule:nonzero;stroke:none" d="M 868.836,1468.5 H 501.828 V 524.762 H 367.008 V 1468.5 H 0 v 119.84 H 868.836 V 1468.5"></path>
      <path id="path16" style="fill:#002d6e;fill-opacity:1;fill-rule:nonzero;stroke:none" d="m 1122.83,1026.58 h 322.07 c 27.95,0 53.18,6 75.65,17.98 22.47,11.98 41.69,28.21 57.67,48.69 15.97,20.46 28.47,44.19 37.46,71.15 8.98,26.97 13.48,54.92 13.48,83.89 0,29.96 -5.25,58.17 -15.73,84.64 -10.49,26.45 -24.48,49.92 -41.95,70.4 -17.48,20.46 -37.96,36.45 -61.41,47.94 -23.48,11.46 -48.19,17.23 -74.16,17.23 H 1122.83 Z M 988.016,524.762 V 1588.34 H 1443.4 c 46.93,0 90.12,-9.75 129.58,-29.22 39.44,-19.47 73.41,-45.45 101.87,-77.89 28.46,-32.46 50.67,-68.91 66.66,-109.36 15.96,-40.44 23.97,-81.64 23.97,-123.58 0,-36.96 -5.25,-72.65 -15.74,-107.11 -10.48,-34.45 -25.46,-65.67 -44.93,-93.62 -19.48,-27.97 -42.95,-51.939 -70.41,-71.912 -27.47,-19.988 -58.19,-34.449 -92.12,-43.437 L 1799.93,524.762 H 1647.14 L 1404.45,906.75 H 1122.83 V 524.762 H 988.016"></path>
      <path id="path18" style="fill:#002d6e;fill-opacity:1;fill-rule:nonzero;stroke:none" d="M 2401,1432.54 2203.26,941.199 h 389.48 z M 1908.16,524.762 2345.57,1588.34 h 110.85 L 2892.34,524.762 H 2748.53 L 2622.7,836.34 H 2176.3 L 2051.96,524.762 h -143.8"></path>
      <path id="path20" style="fill:#002d6e;fill-opacity:1;fill-rule:nonzero;stroke:none" d="m 3768.93,1058.04 c 0,59.92 -8.24,115.09 -24.71,165.53 -16.49,50.42 -40.97,93.63 -73.4,129.58 -32.47,35.95 -72.16,64.15 -119.09,84.64 -46.96,20.45 -100.37,30.71 -160.29,30.71 H 3157.76 V 644.602 h 233.68 c 60.9,0 115.09,10.476 162.53,31.457 47.41,20.972 86.88,49.921 118.34,86.882 31.46,36.93 55.42,80.629 71.91,131.071 16.47,50.418 24.71,105.097 24.71,164.028 z M 3022.94,524.762 V 1588.34 h 368.5 c 84.88,0 159.53,-14 223.95,-41.95 64.41,-27.97 118.08,-65.91 161.03,-113.85 42.92,-47.93 75.13,-104.11 96.61,-168.52 21.47,-64.41 32.23,-133.09 32.23,-205.98 0,-80.892 -11.99,-154.06 -35.96,-219.462 -23.96,-65.406 -58.42,-121.328 -103.36,-167.769 -44.94,-46.43 -99.13,-82.387 -162.53,-107.86 -63.44,-25.461 -134.07,-38.187 -211.97,-38.187 h -368.5"></path>
      <path id="path22" style="fill:#002d6e;fill-opacity:1;fill-rule:nonzero;stroke:none" d="M 4028.25,524.762 V 1586.84 h 134.83 V 524.762 h -134.83"></path>
      <path id="path24" style="fill:#f03241;fill-opacity:1;fill-rule:nonzero;stroke:none" d="M 4286.67,1587.95 4738,1047.32 5659.4,2113.43 h -142.14 l -779.25,-896.39 -316.35,370.91 h -134.99"></path>
      <path id="path26" style="fill:#f03241;fill-opacity:1;fill-rule:nonzero;stroke:none" d="m 5193.85,525.48 -397.12,487.39 -54.21,-58.472 -56.19,58.402 L 3821.11,0 h 142.14 l 779.26,896.379 316.35,-370.899 h 134.99"></path>
    </g>
  </g>
</svg>
